<mxfile host="app.diagrams.net" modified="2024-07-30T13:56:50.904Z" agent="Mozilla/5.0 (Windows NT 10.0; Win64; x64; rv:109.0) Gecko/20100101 Firefox/116.0" etag="N5Rd4PrOr5J0QvbL2NBb" version="24.6.4" type="github">
  <diagram name="第 1 页" id="GcIGUR5Mo0BgxtwPUoqh">
    <mxGraphModel dx="1434" dy="754" grid="1" gridSize="10" guides="1" tooltips="1" connect="1" arrows="1" fold="1" page="1" pageScale="1" pageWidth="827" pageHeight="1169" math="0" shadow="0">
      <root>
        <mxCell id="0" />
        <mxCell id="1" parent="0" />
        <mxCell id="0pj7wDKQE1Ozy6kcACFk-1" value="dsfasdffasdfasd" style="whiteSpace=wrap;html=1;aspect=fixed;" vertex="1" parent="1">
          <mxGeometry x="180" y="130" width="580" height="580" as="geometry" />
        </mxCell>
        <mxCell id="0pj7wDKQE1Ozy6kcACFk-2" value="" style="rounded=1;whiteSpace=wrap;html=1;" vertex="1" parent="1">
          <mxGeometry x="20" y="230" width="70" height="360" as="geometry" />
        </mxCell>
        <mxCell id="0pj7wDKQE1Ozy6kcACFk-3" style="edgeStyle=orthogonalEdgeStyle;rounded=0;orthogonalLoop=1;jettySize=auto;html=1;exitX=1;exitY=0.5;exitDx=0;exitDy=0;entryX=-0.007;entryY=0.484;entryDx=0;entryDy=0;entryPerimeter=0;" edge="1" parent="1" source="0pj7wDKQE1Ozy6kcACFk-2" target="0pj7wDKQE1Ozy6kcACFk-1">
          <mxGeometry relative="1" as="geometry" />
        </mxCell>
      </root>
    </mxGraphModel>
  </diagram>
</mxfile>
